<?xml version="1.0" encoding="utf-8"?>
<!-- Generator: Adobe Illustrator 27.3.1, SVG Export Plug-In . SVG Version: 6.00 Build 0)  -->
<svg version="1.1" id="Layer_1" xmlns="http://www.w3.org/2000/svg" xmlns:xlink="http://www.w3.org/1999/xlink" x="0px" y="0px"
	 viewBox="0 0 1080 1080" style="enable-background:new 0 0 1080 1080;" xml:space="preserve">
<style type="text/css">
	.st0{fill:#FFFFFF;}
</style>
<g>
	<g>
		<g>
			<path class="st0" d="M211.97,453.14c0.75,1.4,1.6,2.77,2.52,4.11c0.93,1.35,1.83,2.57,2.71,3.68s1.68,2.02,2.42,2.73
				c0.74,0.71,1.31,1.16,1.73,1.34c0.16,0.07,0.54-0.08,1.15-0.43c0.61-0.35,1.48-0.98,2.6-1.88c1.12-0.9,2.52-2.13,4.19-3.69
				c1.67-1.55,3.66-3.53,5.97-5.92c-2.71-2.56-5.19-5.55-7.45-8.97c-2.26-3.41-3.88-6.9-4.88-10.45c-1.06,0.47-2.32,1.27-3.78,2.39
				c-1.46,1.12-2.87,2.32-4.24,3.58c-1.36,1.26-2.56,2.42-3.6,3.48c-1.04,1.06-1.63,1.77-1.78,2.14c-0.04,1.09,0.17,2.33,0.62,3.72
				C210.61,450.35,211.21,451.74,211.97,453.14z"/>
			<path class="st0" d="M183.93,446.53c0.73,1.39,1.56,2.79,2.48,4.23c0.92,1.44,1.87,2.77,2.84,4.02c0.97,1.24,1.9,2.31,2.77,3.21
				c0.88,0.9,1.65,1.49,2.33,1.77c0.21,0.09,0.85-0.28,1.94-1.11c1.09-0.82,2.34-1.89,3.75-3.19c1.41-1.3,2.82-2.71,4.23-4.22
				c1.41-1.51,2.55-2.92,3.4-4.21c-1.23-1.14-2.47-2.55-3.71-4.25c-1.24-1.69-2.43-3.44-3.56-5.24c-1.13-1.8-2.13-3.57-2.98-5.32
				c-0.85-1.74-1.49-3.26-1.93-4.55c-0.6,0.11-1.64,0.74-3.11,1.9c-1.47,1.15-2.97,2.44-4.5,3.88c-1.53,1.43-2.91,2.78-4.15,4.03
				c-1.24,1.25-1.92,2.03-2.06,2.34c-0.06,0.71,0.12,1.66,0.53,2.85C182.63,443.86,183.2,445.14,183.93,446.53z"/>
			<path class="st0" d="M263.13,590.77c-0.93,0.69-1.98,1.74-3.16,3.16c-1.18,1.42-2.29,2.89-3.35,4.42
				c-1.05,1.53-1.97,2.92-2.75,4.18c-0.78,1.26-1.2,2.09-1.27,2.48c0.19,1.12,0.67,2.3,1.42,3.53c0.75,1.22,1.65,2.44,2.69,3.63
				c1.04,1.19,2.16,2.34,3.37,3.46c1.2,1.11,2.35,2.11,3.45,3s2.09,1.6,2.96,2.14c0.88,0.53,1.54,0.84,1.98,0.92
				c0.17,0.03,0.51-0.19,1.03-0.67c0.52-0.48,1.22-1.28,2.12-2.41c0.89-1.13,1.99-2.63,3.28-4.52c1.29-1.89,2.8-4.25,4.53-7.09
				c-3.21-1.91-6.29-4.28-9.24-7.11C267.24,597.05,264.89,594.01,263.13,590.77z"/>
			<path class="st0" d="M242,599.5c-1.5-1.51-2.86-3.02-4.07-4.53c-1.21-1.51-2.17-2.85-2.88-4.01c-0.56,0.24-1.43,1.08-2.62,2.53
				c-1.18,1.45-2.36,3.04-3.54,4.77c-1.18,1.73-2.23,3.35-3.17,4.84c-0.93,1.49-1.43,2.41-1.49,2.74c0.1,0.71,0.48,1.59,1.15,2.66
				c0.67,1.07,1.51,2.2,2.52,3.39c1.02,1.19,2.13,2.38,3.34,3.58c1.21,1.2,2.43,2.3,3.65,3.29c1.22,1,2.36,1.84,3.41,2.52
				c1.05,0.68,1.94,1.09,2.66,1.22c0.22,0.04,0.77-0.46,1.65-1.5c0.88-1.04,1.87-2.35,2.96-3.93c1.09-1.58,2.16-3.26,3.2-5.05
				c1.05-1.79,1.84-3.41,2.4-4.85c-1.45-0.84-2.97-1.95-4.55-3.33C245.05,602.45,243.5,601,242,599.5z"/>
			<path class="st0" d="M391.95,562.25c1.99-1.66,3.76-3.44,5.3-5.33c1.54-1.89,2.71-3.77,3.5-5.64c0.97-2.28,1.11-4.4,0.41-6.36
				c-0.7-1.95-1.84-3.85-3.42-5.69c-1.58-1.84-3.42-3.66-5.53-5.48c-2.11-1.82-4.07-3.77-5.87-5.86c-1.81-2.09-3.28-4.36-4.42-6.8
				s-1.53-5.22-1.19-8.33c0.09-0.64,0.05-1.1-0.1-1.38c-0.16-0.28-0.37-0.54-0.63-0.78c-4.3,2.89-7.73,5.68-10.28,8.36
				c-2.56,2.68-4.36,5.27-5.42,7.76c-0.58,1.35-0.99,2.75-1.24,4.21c-0.25,1.46-0.25,2.88,0.02,4.28l-0.42,0.56
				c-1.86-0.12-3.81,0.19-5.86,0.91c-2.05,0.72-4.26,1.68-6.61,2.89c-2.35,1.2-4.8,2.55-7.34,4.05c-2.59,1.47-5.32,2.91-8.19,4.33
				c-4.94,2.37-9.38,4.16-13.32,5.36c-3.95,1.2-7.47,1.99-10.57,2.35c-3.1,0.37-5.84,0.38-8.21,0.05c-2.37-0.34-4.44-0.88-6.2-1.63
				c-3.27-1.39-6.07-3.43-8.39-6.1c-0.71-0.82-1.36-1.71-1.99-2.64c-0.13-0.27-0.28-0.55-0.4-0.82c-1.05-2.22-1.93-4.14-2.66-5.73
				c-0.78-1.62-1.47-2.92-2.06-3.91s-1.3-1.66-2.13-2.01c-0.99-0.42-2.06-0.39-3.22,0.1c-1.16,0.49-2.43,1.25-3.82,2.28
				c-1.39,1.03-2.9,2.31-4.53,3.82c-1.68,1.49-3.51,3.03-5.5,4.6c-1.99,1.58-4.16,3.12-6.52,4.63c-2.36,1.51-4.92,2.84-7.68,3.99
				c-5.77,2.45-10.88,3.8-15.34,4.04c-4.46,0.25-8.38-0.35-11.75-1.79c-3.27-1.39-6.07-3.43-8.39-6.1
				c-1.71-1.97-3.17-4.26-4.39-6.86c-0.05-0.11-0.11-0.23-0.16-0.34c0-0.01,0-0.01-0.01-0.02c-0.54-1.27-1.02-2.54-1.46-3.8
				c-1.76-5.07-2.9-10.17-3.42-15.3c-0.52-5.13-0.5-10.33,0.03-15.62c0.54-5.29,1.44-10.73,2.72-16.32
				c0.54-1.98,1.11-4.12,1.73-6.44c0.59-2.26,1.31-4.59,2.15-6.99c0.2-0.47,0.33-0.89,0.4-1.26c0.07-0.37-0.13-0.65-0.6-0.85
				c-0.42-0.18-1.22,0.3-2.4,1.42c-1.18,1.12-2.51,2.55-3.99,4.28c-1.47,1.73-2.93,3.61-4.38,5.63c-1.44,2.02-2.65,3.87-3.61,5.55
				c-1.91,0.6-4.18,1.18-6.81,1.74c-2.63,0.57-5.35,1.11-8.15,1.63c-2.82,0.58-5.57,1.16-8.24,1.73c-2.67,0.58-4.99,1.16-6.95,1.73
				c-5.06,1.52-9.62,3.89-13.65,7.11c-4.04,3.22-7.82,7.6-11.35,13.15c-0.7,1.05-1.49,2.28-2.39,3.67c-0.95,1.37-1.92,2.8-2.89,4.29
				c-0.97,1.49-1.89,2.96-2.76,4.43c-0.87,1.47-1.57,2.83-2.1,4.07c-0.58,1.35-0.82,2.79-0.74,4.33c0.08,1.54,0.5,3.03,1.26,4.49
				c0.76,1.46,1.85,2.82,3.27,4.1c1.42,1.28,3.14,2.35,5.16,3.21c3.53,1.5,7.43,2.43,11.7,2.78c4.27,0.35,9.07,0,14.42-1.03
				c1.38-0.21,3-1,4.88-2.38c1.88-1.38,3.83-2.95,5.87-4.72c2.02-1.71,4.08-3.46,6.18-5.23c2.1-1.77,4.08-3.18,5.94-4.23l-0.2-0.82
				c-4.83,0.4-9.15,0.61-12.97,0.64c-3.82,0.03-7.2-0.08-10.16-0.33c-2.96-0.25-5.54-0.61-7.72-1.08c-2.19-0.47-4.06-1.04-5.62-1.7
				c-1.14-0.49-2.25-1.1-3.32-1.83c-1.07-0.73-1.98-1.54-2.74-2.41c-0.76-0.88-1.3-1.8-1.63-2.76s-0.29-1.92,0.11-2.85
				c0.51-1.19,1.67-2.28,3.5-3.25c1.82-0.97,4.06-1.84,6.72-2.61c2.66-0.77,5.6-1.48,8.82-2.13c3.22-0.65,6.5-1.31,9.85-1.96
				c3.32-0.61,6.57-1.23,9.72-1.88c3.16-0.65,6-1.35,8.53-2.11l0.62,0.27c-0.61,4.89-0.95,9.45-1,13.69
				c-0.06,4.24,0.1,8.18,0.47,11.84c0.38,3.66,0.89,7.02,1.54,10.09c0.65,3.07,1.41,5.89,2.28,8.47c0.88,2.83,1.88,5.31,2.99,7.44
				c1.12,2.13,2.26,3.95,3.42,5.46c1.17,1.51,2.34,2.74,3.52,3.71c0.6,0.49,1.19,0.91,1.77,1.27c1.67,1.3,3.52,2.4,5.58,3.29
				c4.2,1.79,8.67,2.74,13.41,2.86c4.73,0.12,9.62-0.78,14.66-2.68c2.55-0.94,4.88-2.14,7-3.59c2.12-1.46,4.09-2.95,5.91-4.47
				c1.81-1.53,3.5-3.03,5.05-4.52c1.48-1.45,2.87-2.71,4.19-3.78c1.31-1.07,2.52-1.84,3.61-2.32c1.09-0.48,2.16-0.51,3.2-0.06
				c1.14,0.49,2.21,1.42,3.22,2.8c1.01,1.38,2.09,2.87,3.25,4.47c0.85,1.18,1.79,2.33,2.77,3.48c0.25,0.3,0.5,0.6,0.77,0.89
				c0.1,0.11,0.19,0.23,0.29,0.34c0.07,0.08,0.16,0.15,0.23,0.23c0.19,0.2,0.36,0.41,0.56,0.61c2.18,2.22,4.8,3.98,7.87,5.28
				c2.23,0.95,4.69,1.75,7.39,2.41c2.69,0.66,5.83,0.78,9.41,0.37c3.58-0.41,7.65-1.51,12.22-3.3c4.57-1.79,9.82-4.71,15.77-8.73
				c3.3-2.27,6.2-4.16,8.72-5.67c2.51-1.51,4.85-2.63,7-3.36c2.15-0.74,4.21-1.06,6.16-0.96c1.95,0.1,4.07,0.63,6.36,1.6
				c2.9,1.24,5.89,2.98,8.94,5.24c3.06,2.25,5.97,4.8,8.75,7.64c2.49-0.66,4.93-1.63,7.31-2.91
				C387.76,565.38,389.96,563.91,391.95,562.25z"/>
			<path class="st0" d="M641.84,547.69c3.03-2.36,6.12-5.54,9.27-9.53c3.15-3.99,6.18-8.92,9.1-14.78c0.86-1.71,2.07-3.76,3.63-6.16
				c1.54-2.34,2.81-5.26,3.8-8.76c0.83-2.92,1.41-6.05,1.76-9.39c0.34-3.34,0.51-6.87,0.49-10.6l-0.52-0.15
				c-3.02,2.87-5.7,5.59-8.04,8.18c-2.34,2.59-4.4,5.01-6.17,7.29c0.55,3.18,0.77,5.92,0.65,8.22c-0.12,2.3-0.44,4.38-0.97,6.25
				c-0.45,1.58-1.3,2.93-2.56,4.05c-1.26,1.12-2.8,2.19-4.59,3.19c-2.92,1.63-5.52,2.62-7.78,2.95c-2.27,0.34-4.34,0.24-6.21-0.29
				c-2.22-0.63-3.82-1.65-4.81-3.06c-0.99-1.41-1.12-3.4-0.39-5.97c0.25-0.88,0.63-1.87,1.13-2.99c0.49-1.06,0.88-2.11,1.18-3.17
				c0.2-0.7,0.23-1.38,0.11-2.05c-0.13-0.67-0.6-1.12-1.42-1.35c-0.82-0.23-1.6,0.07-2.34,0.9c-0.74,0.83-1.56,1.97-2.48,3.41
				c-1.06,1.72-2.12,3.44-3.21,5.15c-1.08,1.71-2.22,3.34-3.42,4.9c-1.2,1.55-2.44,2.98-3.72,4.29c-1.28,1.31-2.65,2.42-4.11,3.33
				c-3.42,2.06-6.45,3.41-9.09,4.05c-2.64,0.64-4.98,0.67-7.02,0.09c-2.69-0.76-4.83-1.92-6.44-3.48c-1.61-1.56-2.94-3.15-3.99-4.77
				s-1.99-3.12-2.8-4.48c-0.83-1.31-1.8-2.12-2.91-2.43c-1.34-0.38-2.88,0.08-4.6,1.39c-1.73,1.31-3.53,2.99-5.4,5.04
				c-1.87,2.05-3.78,4.29-5.73,6.7c-1.98,2.34-3.92,4.38-5.8,6.11c-2.59,2.48-5.35,4.65-8.27,6.5c-2.92,1.85-5.84,3.31-8.76,4.38
				c-2.92,1.06-5.76,1.74-8.52,2.03c-2.76,0.29-5.25,0.12-7.47-0.51c-3.62-1.02-6.7-2.43-9.25-4.23c-2.55-1.79-4.63-4.1-6.23-6.92
				c-1.45-2.55-2.53-5.61-3.28-9.15c-0.2-1.13-0.39-2.29-0.56-3.52c-0.51-3.8-0.8-8.05-0.88-12.7c-0.02-1.13-0.01-2.28-0.01-3.42
				c0.01-1.01,0-2,0.02-3.04c0.18-6.88,0.38-13.76,0.59-20.64c0.21-6.88,0.48-13.39,0.8-19.54c0.32-6.15,0.77-11.81,1.35-16.97
				c0.58-5.16,1.36-9.47,2.33-12.91c0.18-0.64,0.37-1.31,0.57-2.01s0.43-1.3,0.7-1.79l-0.73-0.77c-4.55,4.71-8.06,8.94-10.55,12.71
				c-2.49,3.77-4.15,7.15-4.99,10.12c-0.94,3.33-1.65,7.37-2.11,12.12c-0.46,4.76-0.78,9.84-0.95,15.24
				c-0.18,5.41-0.28,10.94-0.3,16.61c-0.04,5.73-0.12,11.17-0.23,16.34c-0.11,5.17-0.33,9.92-0.67,14.23
				c-0.34,4.32-0.88,7.79-1.62,10.42c-0.89,3.15-2.26,5.97-4.09,8.44c-1.83,2.48-3.96,4.63-6.37,6.47
				c-2.41,1.84-5.02,3.37-7.82,4.59c-2.81,1.23-5.62,2.13-8.43,2.72c-2.81,0.59-5.54,0.88-8.19,0.85c-2.64-0.02-5.01-0.33-7.12-0.93
				l-0.5-0.9c6.33-8.99,10.69-17.72,13.08-26.18c1.14-4.03,1.92-8.39,2.34-13.1c0.42-4.71,0.63-9.52,0.63-14.43
				c0-4.92-0.15-9.84-0.45-14.79c-0.31-4.94-0.6-9.69-0.89-14.25c-0.3-4.5-0.57-8.69-0.79-12.57c-0.23-3.88-0.22-7.23,0.01-10.07
				l-0.88-0.25c-11.75,10.55-21.54,21.16-29.39,31.83c-7.84,10.68-13.33,21.53-16.45,32.56c-1.42,5.02-2.33,9.95-2.72,14.79
				c-0.39,4.84-0.27,9.46,0.38,13.87c0.64,4.41,1.79,8.53,3.45,12.37c1.66,3.84,3.84,7.22,6.55,10.13l-0.1,0.35
				c-5.92,4.88-14.46,9.49-25.62,13.84c-11.16,4.34-24.9,8.5-41.21,12.45c-0.77,0.28-1.63,0.54-2.58,0.78
				c-1.01,0.22-1.56,0.5-1.66,0.85c-0.1,0.35,0.01,0.63,0.33,0.85c0.32,0.22,0.65,0.37,1,0.47c0.47,0.13,1.61,0.2,3.44,0.22
				c1.84-0.05,3.89-0.03,6.14,0.03c1.75,0.05,3.82,0.3,6.23,0.72c2.42,0.37,5.03,0.76,7.85,1.18c2.81,0.42,5.8,0.77,8.97,1.07
				c3.16,0.3,6.37,0.32,9.62,0.08c3.25-0.25,6.49-0.83,9.72-1.74c3.22-0.92,6.34-2.34,9.34-4.26c3-1.93,6.11-4.22,9.32-6.87
				c3.21-2.66,6.47-5.94,9.79-9.86l0.7,0.2c1.98,1.7,4.69,3.03,8.13,4c2.69,0.76,5.84,1.1,9.45,1.02c3.62-0.08,7.42-0.83,11.42-2.25
				c4-1.42,7.98-3.64,11.95-6.64c3.97-3.01,7.66-7.08,11.07-12.23c2.27-3.33,4.25-6.79,5.96-10.37c1.21-2.54,2.27-5.02,3.27-7.48
				c1.2,4.92,2.84,9.18,4.93,12.78c2.1,3.62,4.61,6.6,7.54,8.94c2.93,2.34,6.21,4.03,9.83,5.05c4.14,1.17,8.29,1.57,12.43,1.2
				c4.14-0.37,8.37-1.62,12.69-3.74c2.8-1.42,5.35-3.07,7.65-4.98c2.3-1.9,4.4-3.86,6.3-5.88c1.89-2.02,3.59-4.01,5.1-5.98
				c1.5-1.97,2.89-3.69,4.16-5.16c1.27-1.47,2.42-2.61,3.47-3.42c1.05-0.81,2.07-1.07,3.06-0.79c1.28,0.36,2.49,1.08,3.6,2.15
				c1.12,1.07,2.28,2.25,3.49,3.54c1.21,1.29,2.54,2.51,3.97,3.68c1.43,1.16,3.18,2.03,5.22,2.61c4.49,1.27,9.5,0.62,15.02-1.94
				c5.52-2.57,11.35-6.8,17.49-12.69l0.7,0.2c0.5,2.03,1.35,3.6,2.55,4.69c1.2,1.1,2.59,1.87,4.17,2.31
				c2.22,0.63,4.71,0.56,7.48-0.2S638.81,550.04,641.84,547.69z M427.45,554.83c-2.44-2.96-4.36-6.43-5.75-10.42
				c-1.39-3.99-2.16-8.36-2.29-13.13c-0.13-4.77,0.52-9.69,1.96-14.77c1.5-5.31,4.03-10.84,7.57-16.58
				c3.55-5.74,8.42-11.87,14.61-18.37l0.7,0.2c-0.37,1.98-0.51,4.48-0.42,7.49c0.09,3.02,0.3,6.41,0.63,10.15
				c0.33,3.75,0.66,7.75,1,12.01c0.34,4.26,0.56,8.54,0.66,12.86c0.1,4.32,0,8.58-0.3,12.78c-0.31,4.2-0.97,8.11-2,11.73
				c-0.88,3.09-1.92,5.6-3.12,7.53c-1.21,1.93-2.55,3.6-4.02,5.01l-0.8,0.15C432.7,560.01,429.89,557.79,427.45,554.83z"/>
			<path class="st0" d="M713.31,683.22c-0.34-0.1-0.91-0.07-1.69,0.08c-3.43,0.76-7.12,1.47-11.09,2.15
				c-3.96,0.67-7.89,1.23-11.79,1.67c-3.9,0.44-7.66,0.64-11.3,0.6c-3.64-0.04-6.89-0.46-9.75-1.27c-1.61-0.46-3.57-1.38-5.89-2.78
				c-2.32-1.4-4.53-3.11-6.62-5.12c-2.09-2.02-3.77-4.16-5.04-6.44c-1.27-2.28-1.58-4.56-0.94-6.85c0.49-1.72,2.28-3.04,5.38-3.95
				c3.11-0.92,7.17-0.66,12.21,0.77c5.73,1.62,9.69,3.54,11.91,5.78s3.04,4.76,2.49,7.57c-0.09,1.21,0.31,1.95,1.23,2.21
				c0.57,0.16,1.13-0.05,1.67-0.64c1.81-2.46,3.55-4.69,5.23-6.68c1.59-2.14,2.73-4.42,3.41-6.82c0.88-3.09-0.12-6.13-2.99-9.1
				c-2.87-2.97-7.5-5.37-13.91-7.18c-3.9-1.1-7.45-1.55-10.66-1.35c-3.21,0.2-6.12,0.87-8.72,1.98c-2.6,1.12-4.96,2.68-7.08,4.67
				c-2.11,2-3.96,4.26-5.53,6.78c-2.3,3.31-3.99,6.1-5.07,8.4c-1.08,2.29-1.82,4.12-2.21,5.5c-1.26,4.46-0.62,8.75,1.92,12.88
				c2.55,4.12,6.37,7.64,11.48,10.57l-0.1,0.34c-1.24,0.89-2.67,2.24-4.3,4.07c-1.63,1.83-3.19,3.73-4.68,5.72
				c-1.49,1.99-2.74,3.8-3.76,5.43c-1.02,1.63-1.57,2.61-1.67,2.96c-0.45,1.6-0.11,2.56,1.03,2.89c0.69,0.2,1.37,0.08,2.05-0.34
				c0.68-0.43,1.4-0.9,2.17-1.43c2.85-2.65,6.1-4.74,9.74-6.24c3.64-1.51,7.4-2.67,11.28-3.48c3.88-0.82,7.79-1.42,11.72-1.79
				c3.97-0.49,7.74-1.03,11.31-1.62c3.56-0.6,6.76-1.39,9.58-2.39c2.82-1,5.12-2.48,6.92-4.45c1.05-1.06,2.48-2.63,4.3-4.71
				c1.71-2.12,4.11-4.03,7.19-5.76c0.73-0.41,1.17-0.85,1.3-1.3C714.24,683.85,713.99,683.42,713.31,683.22z"/>
			<path class="st0" d="M875.37,394.65c0.15-10.34-0.12-20.99-0.79-31.94c-0.67-10.95-1.48-21.97-2.43-33.05
				c-0.94-11.09-1.95-22.16-3.03-33.22c-1.11-10.95-2.07-21.73-2.9-32.35l-1.37-0.39c-3.69,4.28-8.02,8.8-13.02,13.57
				c-5,4.77-9.97,9.88-14.91,15.35c-4.95,5.46-9.53,11.28-13.75,17.44c-4.22,6.16-7.31,12.74-9.29,19.72
				c-1.52,5.38-2.41,11.47-2.66,18.26c-0.25,6.79,0.01,13.39,0.8,19.79c0.09,1.01,0.31,2.07,0.68,3.16c0.37,1.09,0.9,1.74,1.59,1.93
				c0.68,0.19,1.18-0.04,1.49-0.69s0.56-1.32,0.76-2.01c0.29-1.03,0.43-3.28,0.42-6.74c-0.01-3.46,0.65-7.54,1.98-12.24
				c1.46-5.15,3.61-10.26,6.47-15.33c2.85-5.06,6.61-9.91,11.25-14.53l1.03,0.29c5.33,38.85,8.02,71.92,8.1,99.2
				c0.07,27.29-2.25,49.23-6.94,65.83c-1.75,6.18-4.38,11.74-7.87,16.69c-3.5,4.94-7.56,9.24-12.18,12.88
				c-4.62,3.64-9.62,6.68-15.01,9.11s-10.84,4.23-16.36,5.38c-5.52,1.16-10.94,1.73-16.25,1.71c-5.32-0.02-10.14-0.64-14.49-1.88
				l-0.99-1.76c12.41-17.63,20.96-34.75,25.66-51.35c3.17-11.22,5.01-23.5,5.51-36.84c0.49-13.34,0.24-26.73-0.78-40.19
				c-1.02-13.46-2.38-26.55-4.09-39.28c-1.87-12.64-3.48-23.99-4.84-34.01l-1.72-0.49c-23.48,21.8-42.02,42.74-55.61,62.81
				c-13.6,20.08-23.07,39.57-28.41,58.46c-2.79,9.85-4.56,19.51-5.33,29c-0.77,9.49-0.52,18.56,0.75,27.2
				c1.26,8.64,3.51,16.73,6.76,24.26c3.25,7.54,7.52,14.16,12.84,19.86l-0.19,0.69c-11.61,9.57-28.36,18.62-50.25,27.14
				c-21.89,8.52-48.83,16.66-80.83,24.42c-1.52,0.56-3.21,1.07-5.07,1.53c-1.98,0.43-3.06,0.99-3.26,1.67
				c-0.2,0.69,0.02,1.24,0.65,1.67c0.62,0.42,1.28,0.73,1.96,0.93c0.91,0.26,3.16,0.4,6.74,0.42c3.61-0.09,7.62-0.07,12.04,0.07
				c3.43,0.11,7.5,0.58,12.21,1.42c4.74,0.72,9.87,1.5,15.39,2.31c5.52,0.82,11.38,1.52,17.59,2.1c6.2,0.58,12.49,0.63,18.87,0.15
				c6.38-0.49,12.73-1.62,19.05-3.42c6.32-1.8,12.43-4.58,18.32-8.36c5.89-3.78,11.98-8.27,18.28-13.47
				c6.29-5.21,12.69-11.65,19.19-19.33l1.37,0.39c1.8,1.5,4.04,2.87,6.71,4.13c2.68,1.25,5.33,2.25,7.97,3
				c8.81,2.49,18.26,2.97,28.34,1.44s19.99-5.32,29.73-11.34c8.77-5.68,17.38-14,25.8-24.97s16.29-25.44,23.6-43.4
				c3.15-7.64,6.36-15.26,9.62-22.87c3.26-7.61,6.01-15.36,8.25-23.26c2.36-8.35,4.06-17.31,5.09-26.84
				C874.63,414.94,875.22,405,875.37,394.65z M721.45,511.54c-4.79-5.81-8.55-12.62-11.28-20.44c-2.74-7.82-4.23-16.41-4.49-25.75
				c-0.26-9.35,1.02-19,3.84-28.96c2.59-9.16,6.98-19.01,13.18-29.56c6.2-10.55,14.76-22.01,25.68-34.37l1.37,0.39
				c2.69,15.85,4.73,30.27,6.12,43.28c1.39,13,2.18,24.73,2.38,35.17c0.2,10.44-0.12,19.66-0.96,27.64
				c-0.84,7.99-2.08,14.9-3.73,20.74c-1.72,6.07-3.76,10.99-6.13,14.77c-2.37,3.78-5,7.06-7.88,9.83l-1.57,0.3
				C731.75,521.69,726.24,517.35,721.45,511.54z"/>
			<path class="st0" d="M951.05,365.29c-0.91-21.63-2.65-43.65-5.2-66.06c-2.56-22.4-5.54-44.82-8.93-67.24
				c-3.41-22.26-6.43-43.82-9.06-64.67l-1.42-0.17c-4.76,9.61-9.51,18.65-14.25,27.1c-4.86,8.45-9.3,16.7-13.34,24.75
				c-4.03,8.06-7.48,16.02-10.35,23.88c-2.87,7.87-4.82,16.01-5.84,24.43c-1.12,9.23-1.59,17.76-1.39,25.58
				c0.19,7.83,0.81,15.75,1.88,23.76c0.31,2.34,0.71,4.28,1.18,5.81c0.47,1.54,1.18,2.36,2.13,2.48c0.71,0.09,1.18-0.35,1.41-1.31
				c0.24-0.96,0.42-1.92,0.53-2.89c0.12-0.97,0.09-3.69-0.09-8.14c-0.2-4.29,0.02-9.11,0.67-14.46c0.92-7.61,2.46-15.11,4.62-22.48
				c2.15-7.38,5.31-14.92,9.48-22.63l1.42,0.17c4.26,25.16,7.75,48.25,10.48,69.28c2.72,21.03,4.75,40.13,6.09,57.29
				c1.33,17.16,1.95,32.6,1.85,46.3c-0.1,13.71-0.78,25.74-2.04,36.1c-1.71,14.09-4.86,26.52-9.47,37.3
				c-4.6,10.78-9.93,20.4-15.99,28.86c-6.06,8.47-12.55,16.02-19.46,22.65c-6.92,6.64-13.55,12.85-19.88,18.66
				c-1.06,0.86-2.07,1.72-3.01,2.59c-0.95,0.87-1.5,1.95-1.65,3.25c-0.12,0.97,0.05,1.57,0.51,1.79c0.45,0.22,1.03,0.37,1.74,0.46
				c1.07,0.13,3.01-0.62,5.85-2.25c2.83-1.63,6.32-3.18,10.45-4.65c14.29-6.15,26.56-15.47,36.83-27.94
				c10.26-12.47,18.33-26.65,24.21-42.53c2.26-5.8,4.3-11.47,6.11-17c1.81-5.53,3.43-11.25,4.86-17.15
				c1.44-5.9,2.72-12.03,3.85-18.39c1.13-6.35,2.15-13.25,3.05-20.7C951.24,407.54,951.97,386.93,951.05,365.29z"/>
		</g>
		<g>
			<path class="st0" d="M337.1,291.91c0.99,1.39,2.08,2.73,3.25,4.04c1.17,1.31,2.3,2.5,3.39,3.56s2.07,1.93,2.96,2.59
				c0.88,0.66,1.56,1.06,2.03,1.19c0.18,0.05,0.56-0.16,1.17-0.62c0.6-0.46,1.44-1.25,2.51-2.36c1.07-1.12,2.4-2.62,3.97-4.5
				c1.57-1.89,3.43-4.26,5.56-7.13c-3.24-2.37-6.29-5.22-9.16-8.55c-2.87-3.33-5.08-6.83-6.63-10.48c-1.07,0.64-2.3,1.67-3.71,3.06
				c-1.4,1.4-2.75,2.86-4.03,4.39c-1.28,1.53-2.41,2.93-3.36,4.2c-0.96,1.27-1.5,2.11-1.61,2.52c0.11,1.17,0.5,2.46,1.17,3.88
				C335.27,289.12,336.1,290.52,337.1,291.91z"/>
			<path class="st0" d="M306.28,288.67c0.97,1.38,2.04,2.77,3.22,4.17c1.18,1.41,2.37,2.7,3.58,3.9c1.21,1.19,2.34,2.21,3.39,3.04
				c1.06,0.84,1.97,1.36,2.72,1.57c0.23,0.07,0.87-0.41,1.92-1.44c1.05-1.03,2.24-2.33,3.57-3.91c1.33-1.58,2.64-3.27,3.94-5.08
				c1.3-1.81,2.32-3.46,3.06-4.95c-1.47-1.04-2.98-2.39-4.53-4.03c-1.55-1.64-3.06-3.34-4.51-5.11c-1.45-1.77-2.75-3.52-3.9-5.27
				c-1.14-1.74-2.04-3.27-2.67-4.59c-0.62,0.2-1.64,1.02-3.06,2.45c-1.41,1.43-2.84,3.01-4.28,4.75c-1.44,1.74-2.73,3.36-3.88,4.86
				c-1.15,1.5-1.78,2.43-1.87,2.78c0.04,0.77,0.36,1.76,0.96,2.97C304.53,286,305.32,287.3,306.28,288.67z"/>
			<path class="st0" d="M409.49,442.59c-1.46-1.74-2.92-3.63-4.35-5.68c-1.44-2.05-2.8-4.26-4.08-6.64
				c-0.6,0.33-1.35,0.93-2.25,1.77c-0.9,0.85-1.85,1.82-2.86,2.93c-1.01,1.1-2,2.27-2.98,3.51c-0.98,1.24-1.9,2.36-2.75,3.38
				c-0.8,1.03-1.47,1.95-2.01,2.74c-0.54,0.79-0.83,1.28-0.88,1.45c0.41,2.13,1.33,4.33,2.77,6.6s3.01,4.35,4.71,6.25
				c1.7,1.9,3.31,3.51,4.83,4.82c1.52,1.31,2.6,2.06,3.24,2.24c0.41,0.12,1.24-0.38,2.5-1.47c1.26-1.09,2.65-2.46,4.19-4.11
				c1.54-1.65,3.05-3.38,4.54-5.19c1.49-1.82,2.68-3.39,3.56-4.72l0.05-0.18c-1.23-0.79-2.54-1.84-3.93-3.15
				C412.38,445.85,410.95,444.33,409.49,442.59z"/>
			<path class="st0" d="M467.11,314.23c0.97,1.38,2.04,2.77,3.22,4.17c1.18,1.41,2.37,2.7,3.58,3.9c1.21,1.19,2.34,2.21,3.39,3.04
				c1.06,0.84,1.97,1.36,2.72,1.57c0.23,0.07,0.87-0.41,1.92-1.44c1.05-1.03,2.24-2.33,3.57-3.91c1.33-1.58,2.64-3.27,3.94-5.08
				c1.3-1.81,2.32-3.46,3.06-4.95c-1.47-1.04-2.98-2.39-4.53-4.03c-1.55-1.64-3.06-3.34-4.51-5.11c-1.45-1.77-2.75-3.52-3.9-5.27
				c-1.14-1.74-2.04-3.27-2.67-4.59c-0.62,0.2-1.64,1.02-3.06,2.45c-1.41,1.43-2.84,3.01-4.28,4.75c-1.44,1.74-2.73,3.36-3.88,4.86
				c-1.15,1.5-1.78,2.43-1.87,2.78c0.04,0.77,0.36,1.76,0.96,2.97C465.36,311.56,466.14,312.85,467.11,314.23z"/>
			<path class="st0" d="M497.92,317.46c0.99,1.39,2.08,2.73,3.25,4.04c1.17,1.31,2.3,2.5,3.39,3.56s2.07,1.93,2.96,2.59
				c0.88,0.66,1.56,1.06,2.03,1.19c0.18,0.05,0.56-0.16,1.17-0.62c0.6-0.46,1.44-1.25,2.51-2.36c1.07-1.12,2.4-2.62,3.97-4.5
				c1.57-1.89,3.43-4.26,5.56-7.13c-3.24-2.37-6.29-5.22-9.16-8.55c-2.87-3.33-5.08-6.83-6.63-10.48c-1.07,0.64-2.3,1.67-3.71,3.06
				c-1.4,1.4-2.75,2.86-4.03,4.39c-1.28,1.53-2.41,2.93-3.36,4.2c-0.96,1.27-1.5,2.11-1.61,2.52c0.11,1.17,0.5,2.46,1.17,3.88
				S496.93,316.08,497.92,317.46z"/>
			<path class="st0" d="M737.67,312.76c1.29-6.1,2.48-12.79,3.6-20.07c1.11-7.28,2.01-14.96,2.69-23.03
				c0.67-8.07,0.99-16.08,0.94-24.04c-0.05-7.96-0.56-15.67-1.54-23.13c-0.98-7.46-2.63-14.23-4.94-20.31
				c-2.32-6.08-5.36-11.24-9.14-15.5c-3.78-4.25-8.47-7.17-14.07-8.76c-1.85-0.52-3.73-0.74-5.62-0.68
				c0.63-1.11,1.26-2.23,1.86-3.41c0.51-0.93,1.09-2.02,1.73-3.29c0.64-1.27,1.25-2.48,1.84-3.64c0.58-1.16,1.07-2.19,1.49-3.08
				c0.41-0.89,0.66-1.48,0.74-1.78c0.08-0.29,0.13-0.51,0.14-0.67c0.01-0.15-0.13-0.27-0.42-0.36c-0.29-0.08-0.57,0-0.82,0.24
				c-0.27,0.3-0.63,0.67-1.07,1.12c-3.56,4.1-7.86,8.21-12.9,12.33c-5.04,4.12-10.52,8.17-16.44,12.14
				c-5.92,3.97-12.11,7.86-18.58,11.67c-6.47,3.81-12.89,7.46-19.27,10.96c-6.38,3.49-12.53,6.79-18.46,9.91
				c-5.98,3.1-11.43,5.97-16.34,8.62c-4.91,2.65-9.14,5-12.68,7.05c-3.55,2.06-6.07,3.75-7.59,5.09c-3.77,3.29-7.02,7.42-9.75,12.42
				c-2.74,4.99-5.16,10.22-7.27,15.68c-1.55,3.03-2.85,5.72-3.89,8.07c-1.04,2.35-1.94,4.51-2.68,6.48
				c-0.75,1.96-1.39,3.85-1.93,5.65c-0.54,1.8-1.08,3.64-1.61,5.5c-0.73,2.57-1.3,5.56-1.73,8.97c-0.43,3.41-0.76,7.04-1,10.88
				c-0.23,3.84-0.44,7.76-0.63,11.74c-0.18,3.98-0.37,7.81-0.55,11.48c-0.19,3.67-0.44,7.03-0.77,10.09
				c-0.33,3.06-0.78,5.58-1.34,7.57c-0.94,3.33-2.52,6.35-4.74,9.06c-2.22,2.71-4.94,5.1-8.17,7.15
				c-5.48,3.31-10.44,5.32-14.91,6.04c-4.46,0.72-8.59,0.55-12.38-0.52c-2.39-0.68-4.81-2.09-7.27-4.23
				c-0.79-0.69-1.57-1.54-2.37-2.47c-0.26-0.39-0.53-0.79-0.77-1.16c-1.42-2.23-2.62-4.15-3.62-5.75c-1.05-1.62-1.97-2.92-2.73-3.89
				c-0.76-0.97-1.61-1.59-2.55-1.86c-1.11-0.31-2.25-0.13-3.42,0.55c-1.17,0.68-2.43,1.66-3.77,2.95c-1.34,1.29-2.78,2.86-4.31,4.69
				c-1.59,1.82-3.33,3.71-5.24,5.66c-1.91,1.95-4.02,3.89-6.33,5.82c-2.31,1.93-4.86,3.7-7.65,5.31c-5.82,3.4-11.09,5.53-15.81,6.4
				c-4.73,0.87-8.98,0.77-12.78-0.31c-3.68-1.04-6.94-2.83-9.78-5.37c-0.87-0.78-1.69-1.64-2.48-2.55
				c-0.18-0.27-0.37-0.55-0.54-0.82c-1.42-2.23-2.62-4.15-3.62-5.75c-1.05-1.62-1.97-2.92-2.73-3.89s-1.61-1.59-2.55-1.86
				c-1.11-0.31-2.25-0.13-3.42,0.55c-1.17,0.68-2.43,1.66-3.77,2.95c-1.34,1.29-2.78,2.86-4.31,4.69c-1.59,1.82-3.33,3.71-5.24,5.66
				c-1.91,1.95-4.02,3.89-6.33,5.82c-2.31,1.93-4.86,3.7-7.65,5.31c-5.82,3.4-11.09,5.53-15.81,6.4c-4.73,0.87-8.98,0.77-12.78-0.31
				c-3.68-1.04-6.94-2.83-9.78-5.37c-2.09-1.87-3.96-4.11-5.62-6.73c-0.07-0.11-0.14-0.22-0.21-0.33c-0.01-0.01-0.01-0.03-0.02-0.04
				c-0.74-1.28-1.43-2.56-2.07-3.84c-2.57-5.17-4.48-10.46-5.73-15.85c-1.25-5.4-1.94-10.95-2.09-16.67
				c-0.15-5.72,0.08-11.64,0.68-17.78c0.3-2.18,0.62-4.55,0.97-7.1c0.33-2.49,0.77-5.08,1.34-7.75c0.15-0.53,0.23-0.99,0.25-1.39
				c0.02-0.4-0.23-0.68-0.76-0.83c-0.47-0.13-1.26,0.48-2.36,1.84c-1.11,1.36-2.33,3.06-3.67,5.11c-1.34,2.05-2.64,4.25-3.9,6.6
				c-1.27,2.35-2.3,4.49-3.09,6.41c-1.96,0.9-4.3,1.83-7.03,2.79c-2.73,0.96-5.55,1.91-8.47,2.85c-2.93,1-5.78,1.99-8.55,2.97
				c-2.77,0.98-5.16,1.91-7.18,2.79c-5.19,2.31-9.72,5.46-13.59,9.44c-3.87,3.98-7.31,9.17-10.31,15.57
				c-0.6,1.22-1.28,2.63-2.05,4.24c-0.83,1.6-1.66,3.25-2.49,4.97c-0.83,1.72-1.61,3.42-2.34,5.11c-0.73,1.68-1.29,3.23-1.69,4.63
				c-0.43,1.52-0.5,3.09-0.2,4.72c0.3,1.63,0.95,3.17,1.96,4.62c1.01,1.45,2.35,2.76,4.04,3.93c1.69,1.17,3.67,2.08,5.95,2.72
				c3.97,1.12,8.25,1.58,12.85,1.37c4.6-0.21,9.68-1.23,15.24-3.06c1.44-0.41,3.07-1.48,4.88-3.21c1.81-1.72,3.69-3.67,5.62-5.83
				c1.92-2.1,3.88-4.24,5.88-6.42c2-2.18,3.92-3.95,5.76-5.32l-0.33-0.85c-5.1,1.08-9.68,1.89-13.74,2.45
				c-4.07,0.55-7.69,0.9-10.88,1.04c-3.19,0.14-5.99,0.1-8.39-0.1c-2.4-0.21-4.48-0.56-6.23-1.05c-1.28-0.36-2.54-0.86-3.79-1.5
				c-1.24-0.63-2.32-1.37-3.26-2.2c-0.93-0.83-1.64-1.74-2.11-2.73c-0.48-0.99-0.57-2.01-0.27-3.05c0.38-1.34,1.48-2.66,3.29-3.94
				c1.81-1.28,4.09-2.52,6.82-3.7c2.73-1.18,5.77-2.34,9.12-3.47c3.35-1.13,6.76-2.28,10.24-3.44c3.46-1.1,6.83-2.21,10.12-3.33
				c3.28-1.12,6.22-2.26,8.81-3.42l0.7,0.2c0.01,5.3,0.28,10.21,0.79,14.74c0.52,4.53,1.22,8.72,2.12,12.56
				c0.9,3.85,1.9,7.36,3.02,10.55c1.12,3.19,2.31,6.09,3.58,8.72c1.32,2.9,2.73,5.41,4.21,7.53c1.48,2.12,2.94,3.91,4.4,5.36
				c1.45,1.45,2.87,2.61,4.26,3.48c0.71,0.44,1.39,0.81,2.06,1.12c1.95,1.16,4.08,2.09,6.4,2.74c4.73,1.34,9.62,1.75,14.69,1.23
				c5.06-0.52,10.16-2.14,15.27-4.85c2.59-1.35,4.91-2.94,6.98-4.79c2.06-1.84,3.96-3.7,5.69-5.58c1.73-1.87,3.32-3.71,4.77-5.51
				c1.38-1.75,2.69-3.29,3.95-4.6c1.26-1.32,2.43-2.31,3.54-2.97c1.1-0.67,2.24-0.83,3.4-0.5c1.28,0.36,2.56,1.21,3.82,2.55
				c1.26,1.34,2.62,2.77,4.07,4.32c1.07,1.14,2.23,2.25,3.44,3.34c0.3,0.28,0.61,0.56,0.93,0.84c0.12,0.11,0.24,0.22,0.37,0.33
				c0.09,0.08,0.19,0.14,0.28,0.22c0.23,0.19,0.44,0.39,0.68,0.57c2.63,2.07,5.67,3.59,9.11,4.57c4.73,1.34,9.62,1.75,14.69,1.23
				c5.06-0.52,10.16-2.14,15.27-4.85c2.59-1.35,4.91-2.94,6.98-4.79c2.06-1.84,3.96-3.7,5.69-5.58c1.73-1.87,3.32-3.71,4.77-5.51
				c1.38-1.75,2.69-3.29,3.95-4.6c1.26-1.32,2.43-2.31,3.54-2.97c1.1-0.67,2.24-0.83,3.4-0.5c1.28,0.36,2.56,1.21,3.82,2.55
				c1.26,1.34,2.62,2.77,4.07,4.32c1.45,1.55,3.03,3.05,4.73,4.51c0.01,0.01,0.02,0.02,0.04,0.03c0.2,0.17,0.36,0.36,0.56,0.52
				c2.29,1.82,4.66,3.07,7.11,3.76c5.02,1.42,10.2,1.59,15.55,0.52c5.35-1.07,10.96-3.74,16.83-8.01
				c3.83-2.83,7.36-6.92,10.61-12.27c2.88-4.75,5.62-10.69,8.22-17.68c0.23,1.1,0.46,2.2,0.74,3.25c1.35,5.05,3.11,9.39,5.3,13.04
				c2.18,3.64,4.67,6.6,7.46,8.87c2.79,2.27,5.65,3.82,8.57,4.65c6.3,1.78,12.78,1.24,19.43-1.64c6.65-2.88,13.75-7.76,21.31-14.63
				c3.21-2.88,6.05-5.29,8.53-7.23c2.47-1.95,4.81-3.46,7.01-4.54c2.2-1.08,4.34-1.7,6.44-1.87c2.1-0.16,4.43,0.12,7,0.84
				c3.27,0.92,6.69,2.38,10.25,4.37c3.57,1.99,7.02,4.3,10.37,6.95c2.56-1.04,5.03-2.41,7.4-4.1c2.37-1.69,4.51-3.56,6.41-5.61
				c1.9-2.05,3.55-4.18,4.93-6.41c1.39-2.22,2.38-4.39,2.97-6.49c0.66-2.33,0.33-4.46-0.98-6.38c-1.32-1.92-3.12-3.74-5.41-5.46
				c-2.29-1.72-4.81-3.41-7.55-5.07c-2.76-1.6-5.29-3.26-7.57-4.98c-2.29-1.72-4.08-3.57-5.38-5.54c-1.3-1.98-1.61-4.16-0.93-6.55
				c0.19-0.68,0.44-1.32,0.72-1.93c0.72-0.98,1.49-1.94,2.17-2.93c0.94-1.31,1.87-2.75,2.78-4.32c0.92-1.57,1.79-3.14,2.61-4.7
				c0.82-1.56,1.55-3.14,2.19-4.72c0.64-1.58,1.15-3.08,1.55-4.48c1.07-3.79,1.58-7.8,1.51-12.01c-0.07-4.21-0.41-8.53-1.01-12.96
				c-0.61-4.43-1.35-8.97-2.24-13.64c-0.9-4.61-1.61-9.28-2.13-14.03c-0.51-4.75-0.72-9.52-0.63-14.32
				c0.09-4.8,0.81-9.56,2.15-14.29c0.68-2.39,1.49-4.49,2.45-6.31c0.12-0.23,0.27-0.43,0.4-0.65c1.24-0.96,2.48-1.91,3.73-2.91
				c2.74-2.12,5.29-4.26,7.63-6.4c0.2-0.18,0.38-0.37,0.57-0.55c1.14-0.36,2.32-0.65,3.59-0.78c1.79-0.19,3.64-0.01,5.57,0.54
				c5.08,1.44,9.37,4.12,12.86,8.04c3.49,3.92,6.34,8.73,8.54,14.43c2.2,5.7,3.83,12.07,4.9,19.12c1.06,7.05,1.7,14.4,1.89,22.05
				c0.2,7.65,0.01,15.43-0.55,23.34c-0.57,7.91-1.34,15.54-2.32,22.89c-0.98,7.35-2.13,14.26-3.45,20.73
				c-1.33,6.47-2.67,12.09-4.02,16.88c-0.33,1.17-0.73,2.47-1.2,3.92c-0.47,1.44-0.94,2.86-1.39,4.24
				c-0.46,1.38-0.86,2.59-1.22,3.63c-0.36,1.03-0.57,1.67-0.63,1.9c-0.13,0.47-0.25,0.94-0.35,1.41c-0.1,0.48-0.07,0.74,0.11,0.79
				c0.29,0.08,0.62-0.06,0.98-0.43c0.36-0.37,0.7-0.8,1.02-1.27c1.69-2.17,3.28-4.46,4.78-6.87c1.43-2.37,2.92-4.75,4.48-7.15
				c1.07-1.78,2.08-3.95,3.03-6.52c0.95-2.57,1.89-5.52,2.83-8.84C735.17,323.93,736.38,318.86,737.67,312.76z M664.6,241.96
				c-0.43,5.65-0.49,11.05-0.19,16.21c0.31,5.16,0.84,10.06,1.61,14.69c0.77,4.63,1.46,8.97,2.08,13.03
				c0.62,4.05,1.02,7.81,1.21,11.27c0.19,3.46-0.12,6.59-0.91,9.39c-0.35,1.23-0.99,2.62-1.94,4.18c-0.95,1.56-1.93,3.14-2.95,4.75
				c-0.12,0.19-0.23,0.37-0.35,0.56c-0.16,0.22-0.3,0.41-0.46,0.63c-0.79,1.2-1.51,2.41-2.19,3.62c-0.46,0.76-0.85,1.48-1.15,2.15
				c-0.06,0.11-0.12,0.22-0.18,0.33c-1.02,2.04-1.83,4.12-2.42,6.22s-0.97,3.98-1.12,5.64c-0.15,1.66-0.16,3.14-0.03,4.44
				l-0.37,0.65c-1.99,0.13-4.03,0.72-6.13,1.77c-2.09,1.05-4.31,2.37-6.66,3.98c-2.35,1.61-4.77,3.38-7.28,5.32
				c-2.56,1.92-5.28,3.83-8.15,5.73c-3.89,2.62-7.46,4.75-10.7,6.38c-3.24,1.64-6.25,2.85-9.02,3.64c-2.78,0.79-5.34,1.2-7.68,1.23
				c-2.34,0.03-4.53-0.24-6.58-0.82c-2.51-0.71-4.84-1.89-6.99-3.54c-2.15-1.65-4.01-3.88-5.58-6.69c-1.57-2.81-2.82-6.3-3.75-10.47
				c-0.04-0.19-0.07-0.41-0.11-0.61c-0.14-0.84-0.29-1.67-0.41-2.56c-0.51-3.8-0.8-8.06-0.88-12.7c-0.02-1.13-0.01-2.26-0.01-3.4
				c0-1.02,0-2.01,0.02-3.06c0.16-7.27,0.34-13.58,0.54-18.95c0.19-5.37,0.42-9.95,0.68-13.76c0.26-3.8,0.55-6.97,0.89-9.49
				c0.34-2.52,0.73-4.6,1.2-6.23c0.91-3.21,2.98-6.26,6.23-9.16c3.24-2.9,7.38-5.87,12.41-8.92c5.03-3.05,10.86-6.29,17.5-9.71
				c6.64-3.42,13.79-7.29,21.45-11.62c7.66-4.33,15.73-9.18,24.22-14.57c3.64-2.31,7.32-4.81,11.03-7.42
				c-1.45,3.42-2.68,6.83-3.64,10.22C666.11,230.43,665.03,236.32,664.6,241.96z"/>
		</g>
	</g>
	<g>
		<path class="st0" d="M176.77,856.29h-30.92v-3.03c3.75-0.04,6.29-0.78,7.62-2.21c1.33-1.43,1.99-4.05,1.99-7.84v-54.75
			c0-3.79-0.66-6.39-1.99-7.78c-1.33-1.39-3.87-2.13-7.62-2.21v-3.04h30.92v3.04c-3.79,0.08-6.34,0.82-7.65,2.21
			c-1.31,1.39-1.96,3.98-1.96,7.78v54.75c0,6.49,3.2,9.84,9.61,10.05V856.29z"/>
		<path class="st0" d="M224.25,838.59c0,5.61-2.51,10.33-7.52,14.16c-4.59,3.58-9.78,5.37-15.55,5.37c-4.51,0-9.72-1.26-15.62-3.79
			v-17.51h4.3c0.29,4.76,1.62,8.72,3.98,11.89c2.7,3.63,6.3,5.44,10.81,5.44c3.16,0,5.79-0.97,7.9-2.91
			c2.11-1.94,3.16-4.47,3.16-7.59c0-3.12-1.29-5.92-3.86-8.41c-1.18-1.14-3.82-2.99-7.9-5.56c-5.1-3.2-7.8-4.91-8.09-5.12
			c-3.41-2.4-5.66-4.55-6.73-6.45c-1.07-1.9-1.61-3.81-1.61-5.75c0-4.93,2.3-8.89,6.89-11.89c4-2.57,8.6-3.86,13.78-3.86
			c3.83,0,7.97,0.84,12.39,2.53v16.56h-4.55c-0.04-4.05-1.14-7.54-3.29-10.5c-2.44-3.33-5.61-4.99-9.48-4.99
			c-2.19,0-3.99,0.71-5.41,2.12c-1.41,1.41-2.12,3.21-2.12,5.41c0,2.66,1.31,5.16,3.92,7.52c1.14,1.05,3.56,2.74,7.27,5.06
			c6.79,4.26,10.52,6.68,11.19,7.27C222.2,830.92,224.25,834.58,224.25,838.59z"/>
		<path class="st0" d="M260.35,856.29h-29.02v-3.03c3.54-0.08,6.05-0.86,7.52-2.34c1.47-1.47,2.21-3.98,2.21-7.52v-60.13
			c0-3.88-1.6-5.82-4.81-5.82c-1.35,0-2.99,0.34-4.93,1.01v-3.04l22.06-8.66v2.59c-1.81,0.88-2.72,2.42-2.72,4.62v69.42
			c0,3.54,0.73,6.05,2.18,7.52c1.45,1.48,3.95,2.26,7.49,2.34V856.29z"/>
		<path class="st0" d="M322.62,848.7c-6.41,6.28-11.63,9.42-15.68,9.42c-3.62,0-5.44-2.02-5.44-6.07v-9.36
			c-10.03,10.29-17.94,15.43-23.71,15.43c-3.33,0-6.09-1.31-8.28-3.92c-2.11-2.49-3.16-5.42-3.16-8.79
			c0-9.15,11.72-19.01,35.15-29.59v-7.59c0-2.4-0.71-4.34-2.12-5.82c-1.41-1.48-3.32-2.21-5.72-2.21c-4.76,0-8.79,2.42-12.08,7.27
			c-2.7,4.05-4.32,8.68-4.87,13.91h-4.24v-15.17c9.69-6.41,18.82-9.61,27.38-9.61c4.09,0,6.99,0.91,8.69,2.72
			c1.71,1.81,2.56,4.78,2.56,8.92v39.51c0,1.9,0.86,2.85,2.59,2.85c1.68,0,4.66-1.94,8.91-5.82V848.7z M302.2,820.95
			c-6.07,1.26-11.57,3.44-16.5,6.51c-6.49,4.05-9.74,8.62-9.74,13.72c0,2.61,0.81,4.7,2.43,6.26c1.62,1.56,3.74,2.34,6.35,2.34
			c6.07,0,10.68-3.5,13.85-10.5C300.92,834.01,302.12,827.9,302.2,820.95z"/>
		<path class="st0" d="M424.98,856.29h-22v-3.03c1.81-0.04,2.72-1.03,2.72-2.97v-36.23c0-6.79-2.23-10.18-6.7-10.18
			c-6.07,0-11.02,4.62-14.86,13.85c-2.99,7.29-4.49,14.48-4.49,21.56c0,4.59,0.59,7.9,1.77,9.93c1.56,2.61,4.43,3.96,8.6,4.05v3.03
			h-21.81v-3.03c1.77-0.08,2.66-0.86,2.66-2.34v-38.88c0-2.15-0.51-3.96-1.52-5.44c-1.18-1.73-2.78-2.59-4.8-2.59
			c-6.24,0-11.25,4.62-15.05,13.85c-2.95,7.21-4.43,14.44-4.43,21.69c0,4.55,0.57,7.82,1.71,9.8c1.56,2.61,4.4,3.92,8.54,3.92v3.03
			h-28.64v-3.03c3.5-0.08,5.95-0.88,7.37-2.37s2.12-3.99,2.12-7.49v-33.13c0-3.5-1.37-5.25-4.11-5.25c-1.35,0-3.14,0.46-5.37,1.39
			v-3.16l16.12-6.45h2.97v19.22c4.55-6.07,7.99-10.22,10.31-12.46c4.8-4.59,9.5-6.89,14.1-6.89c6.87,0,10.31,4.91,10.31,14.73
			c0,1.1-0.02,2.42-0.06,3.98c4.76-5.99,8.26-10.01,10.5-12.08c4.85-4.47,9.53-6.7,14.04-6.7c3.2,0,5.75,1.12,7.65,3.35
			c1.81,2.07,2.72,4.74,2.72,8.03v35.41c0,3.54,0.73,6.05,2.18,7.52c1.45,1.48,3.95,2.26,7.49,2.34V856.29z"/>
		<path class="st0" d="M459.95,856.29h-28.96v-3.03c3.54-0.08,6.04-0.86,7.49-2.34c1.45-1.47,2.18-3.98,2.18-7.52v-34.58
			c0-2.66-1.52-3.98-4.55-3.98c-1.1,0-2.3,0.27-3.6,0.82c-0.72,0.3-1.22,0.49-1.52,0.57v-3.22l16.18-6.39h3.1v46.79
			c0,3.54,0.73,6.05,2.18,7.52c1.45,1.48,3.95,2.26,7.49,2.34V856.29z M451.54,776.37c0,1.69-0.59,3.11-1.77,4.27
			c-1.18,1.16-2.61,1.74-4.3,1.74s-3.11-0.58-4.27-1.74c-1.16-1.16-1.74-2.58-1.74-4.27c0-1.64,0.57-3.07,1.71-4.27
			s2.53-1.8,4.17-1.8c1.73,0,3.19,0.58,4.39,1.74C450.94,773.2,451.54,774.65,451.54,776.37z"/>
		<path class="st0" d="M515.58,840.8c-9.23,11.55-18.17,17.32-26.81,17.32c-7.04,0-12.81-2.85-17.32-8.54
			c-4.17-5.31-6.26-11.55-6.26-18.71c0-8.98,2.97-16.88,8.91-23.71c6.2-7.08,13.72-10.62,22.57-10.62c5.27,0,10.98,1.39,17.13,4.17
			v16.5h-4.62c-0.13-4.85-1.67-8.86-4.62-12.04c-2.95-3.18-6.83-4.77-11.63-4.77c-5.99,0-10.71,2.7-14.16,8.09
			c-2.99,4.64-4.49,10.12-4.49,16.44c0,6.49,1.58,12.08,4.74,16.75c3.62,5.35,8.54,8.03,14.73,8.03c6.28,0,13.55-4.45,21.81-13.34
			V840.8z"/>
		<path class="st0" d="M612.95,833.15l-5.44,26.11h-2.97c-0.04-1.98-0.95-2.97-2.72-2.97h-45.77v-3.03
			c3.75-0.04,6.29-0.78,7.62-2.21c1.33-1.43,1.99-4.05,1.99-7.84v-54.69c0-3.79-0.66-6.4-1.99-7.81c-1.33-1.41-3.87-2.16-7.62-2.24
			v-3.04h31.04v3.04c-3.84,0.08-6.41,0.81-7.71,2.18c-1.31,1.37-1.96,3.99-1.96,7.87v64.74h8.22c12.77,0,20.36-6.7,22.76-20.11
			H612.95z"/>
		<path class="st0" d="M645.32,856.29h-28.96v-3.03c3.54-0.08,6.04-0.86,7.49-2.34c1.45-1.47,2.18-3.98,2.18-7.52v-34.58
			c0-2.66-1.52-3.98-4.55-3.98c-1.1,0-2.3,0.27-3.6,0.82c-0.72,0.3-1.22,0.49-1.52,0.57v-3.22l16.19-6.39h3.1v46.79
			c0,3.54,0.73,6.05,2.18,7.52c1.45,1.48,3.95,2.26,7.49,2.34V856.29z M636.91,776.37c0,1.69-0.59,3.11-1.77,4.27
			c-1.18,1.16-2.61,1.74-4.3,1.74c-1.69,0-3.11-0.58-4.27-1.74c-1.16-1.16-1.74-2.58-1.74-4.27c0-1.64,0.57-3.07,1.71-4.27
			s2.53-1.8,4.17-1.8c1.73,0,3.19,0.58,4.39,1.74C636.31,773.2,636.91,774.65,636.91,776.37z"/>
		<path class="st0" d="M711.39,819.43c0,5.35-1.14,10.66-3.41,15.93c-2.28,5.27-5.37,9.65-9.29,13.15
			c-3.54,3.16-7.08,5.29-10.62,6.39c-2.99,0.93-7.12,1.39-12.39,1.39h-5.82c-3.33,0-5.56,0.11-6.7,0.32
			c-2.53,0.55-4.28,1.77-5.25,3.67h-4.24c2.4-4.34,3.6-9.33,3.6-14.98v-62.28c0-3.71-1.41-5.56-4.24-5.56
			c-1.31,0-3.1,0.48-5.37,1.45v-3.1l21.05-8.72v2.59c-1.18,0.67-1.77,1.79-1.77,3.35v43.31c5.94-6.83,9.82-11.04,11.63-12.65
			c5.23-4.68,10.24-7.02,15.05-7.02c5.82,0,10.35,2.42,13.59,7.27C710,808.15,711.39,813.32,711.39,819.43z M701.91,825.88
			c0-5.4-0.95-9.93-2.85-13.59c-2.4-4.72-6.05-7.08-10.94-7.08c-6.66,0-12.16,3.86-16.5,11.57c-3.67,6.53-5.5,13.38-5.5,20.55
			c0,2.7,0.27,5.73,0.82,9.1c5.14,3.16,10.62,4.74,16.44,4.74c6.58,0,11.46-2.74,14.67-8.22
			C700.62,838.56,701.91,832.88,701.91,825.88z"/>
		<path class="st0" d="M763.55,817.15h-4.49c-0.04-7.63-2.26-11.44-6.64-11.44c-5.44,0-9.76,4.68-12.96,14.04
			c-2.49,7.12-3.73,14.04-3.73,20.74c0,5.27,1.05,8.77,3.16,10.5c1.9,1.52,5.56,2.28,11,2.28v3.03h-32.88v-3.03
			c3.54-0.08,6.05-0.86,7.52-2.34c1.47-1.47,2.21-3.98,2.21-7.52v-32.81c0-3.71-1.37-5.56-4.11-5.56c-1.14,0-3.01,0.46-5.63,1.39
			v-3.03l16.63-6.77h2.78v20.55c7.97-13.61,15.34-20.42,22.13-20.42c1.39,0,3.06,0.32,5,0.95V817.15z"/>
		<path class="st0" d="M825,848.7c-6.41,6.28-11.63,9.42-15.68,9.42c-3.62,0-5.44-2.02-5.44-6.07v-9.36
			c-10.03,10.29-17.93,15.43-23.71,15.43c-3.33,0-6.09-1.31-8.28-3.92c-2.11-2.49-3.16-5.42-3.16-8.79
			c0-9.15,11.72-19.01,35.15-29.59v-7.59c0-2.4-0.71-4.34-2.12-5.82s-3.32-2.21-5.72-2.21c-4.76,0-8.79,2.42-12.08,7.27
			c-2.7,4.05-4.32,8.68-4.87,13.91h-4.24v-15.17c9.69-6.41,18.82-9.61,27.38-9.61c4.09,0,6.99,0.91,8.69,2.72
			c1.71,1.81,2.56,4.78,2.56,8.92v39.51c0,1.9,0.86,2.85,2.59,2.85c1.69,0,4.66-1.94,8.92-5.82V848.7z M804.58,820.95
			c-6.07,1.26-11.57,3.44-16.5,6.51c-6.49,4.05-9.74,8.62-9.74,13.72c0,2.61,0.81,4.7,2.43,6.26c1.62,1.56,3.74,2.34,6.35,2.34
			c6.07,0,10.68-3.5,13.85-10.5C803.3,834.01,804.5,827.9,804.58,820.95z"/>
		<path class="st0" d="M875.52,817.15h-4.49c-0.04-7.63-2.26-11.44-6.64-11.44c-5.44,0-9.76,4.68-12.96,14.04
			c-2.49,7.12-3.73,14.04-3.73,20.74c0,5.27,1.05,8.77,3.16,10.5c1.9,1.52,5.56,2.28,11,2.28v3.03h-32.88v-3.03
			c3.54-0.08,6.05-0.86,7.52-2.34c1.47-1.47,2.21-3.98,2.21-7.52v-32.81c0-3.71-1.37-5.56-4.11-5.56c-1.14,0-3.01,0.46-5.63,1.39
			v-3.03l16.63-6.77h2.78v20.55c7.97-13.61,15.34-20.42,22.13-20.42c1.39,0,3.06,0.32,5,0.95V817.15z"/>
		<path class="st0" d="M938.74,801.41c-2.7,0.17-4.76,1.03-6.2,2.59c-1.86,1.98-3.73,5.46-5.63,10.43l-21.69,56.27
			c-3.33,8.64-9.61,13.36-18.84,14.16l-10.24-12.08l3.41-2.72c3.33,4.13,7.04,6.2,11.13,6.2c4.43,0,7.78-2.26,10.05-6.77
			c0.72-1.48,2.13-4.89,4.24-10.24l1.01-2.59l-17.26-42.93c-1.56-3.92-2.93-6.66-4.11-8.22c-2.07-2.7-4.64-4.07-7.71-4.11v-3.04
			h20.48v3.04c-1.6,0.08-2.4,0.59-2.4,1.52c0,0.42,0.13,0.95,0.38,1.58l15.68,39.01l6.2-16.5c2.78-7.42,4.17-13.57,4.17-18.46
			c0-4.76-3.01-7.14-9.04-7.14v-3.04h26.36V801.41z"/>
	</g>
</g>
</svg>
